<?xml version="1.0" encoding="UTF-8"?><svg id="Calque_2" xmlns="http://www.w3.org/2000/svg" viewBox="0 0 701.23 58"><defs><style>.cls-1,.cls-2{letter-spacing:-.02em;}.cls-1,.cls-3,.cls-4,.cls-5,.cls-6,.cls-7,.cls-8{fill:#fffcec;}.cls-2,.cls-9,.cls-10,.cls-11,.cls-12,.cls-13,.cls-14,.cls-15,.cls-16,.cls-17,.cls-18,.cls-19,.cls-20{fill:#fff8e6;}.cls-9{letter-spacing:-.02em;}.cls-3,.cls-10{letter-spacing:-.03em;}.cls-11{letter-spacing:-.04em;}.cls-4,.cls-12{letter-spacing:-.04em;}.cls-13{letter-spacing:-.01em;}.cls-6{letter-spacing:0em;}.cls-15{letter-spacing:-.02em;}.cls-21{font-family:VinaSans-Regular, 'Vina Sans';font-size:34.48px;}.cls-16{letter-spacing:-.03em;}.cls-7,.cls-17{letter-spacing:-.06em;}.cls-18{letter-spacing:-.06em;}.cls-19{letter-spacing:0em;}.cls-8,.cls-20{letter-spacing:0em;}</style></defs><g id="Maquette"><rect width="700" height="58"/><text class="cls-21" transform="translate(.5 41.51)"><tspan class="cls-7" x="0" y="0">T</tspan><tspan class="cls-4" x="11.72" y="0">A</tspan><tspan class="cls-8" x="24.48" y="0">G</tspan><tspan class="cls-4" x="40.17" y="0">S/</tspan><tspan class="cls-5" x="60.51" y="0">GR</tspan><tspan class="cls-1" x="90.68" y="0">AF</tspan><tspan class="cls-6" x="115.16" y="0">FITI</tspan><tspan class="cls-4" x="155.22" y="0">/</tspan><tspan class="cls-3" x="162.81" y="0">S</tspan><tspan class="cls-1" x="175.91" y="0">TREE</tspan><tspan class="cls-5" x="224.52" y="0">T </tspan><tspan class="cls-1" x="245.21" y="0">AR</tspan><tspan class="cls-7" x="272.1" y="0">T</tspan><tspan class="cls-11" x="283.82" y="0">/</tspan><tspan class="cls-20" x="291.41" y="0">S</tspan><tspan class="cls-2" x="305.2" y="0">K</tspan><tspan class="cls-18" x="318.68" y="0">A</tspan><tspan class="cls-9" x="330.75" y="0">TE/</tspan><tspan class="cls-14" x="363.16" y="0">M</tspan><tspan class="cls-2" x="380.29" y="0">U</tspan><tspan class="cls-15" x="393.74" y="0">S</tspan><tspan class="cls-9" x="407.02" y="0">IQ</tspan><tspan class="cls-14" x="427.08" y="0">U</tspan><tspan class="cls-9" x="441.22" y="0">E</tspan><tspan class="cls-12" x="452.25" y="0">/</tspan><tspan class="cls-10" x="459.84" y="0">S</tspan><tspan class="cls-2" x="472.94" y="0">TREE</tspan><tspan class="cls-14" x="521.55" y="0">T </tspan><tspan class="cls-2" x="542.24" y="0">FO</tspan><tspan class="cls-13" x="566.75" y="0">O</tspan><tspan class="cls-11" x="580.58" y="0">D/</tspan><tspan class="cls-9" x="601.06" y="0">C</tspan><tspan class="cls-13" x="614.85" y="0">O</tspan><tspan class="cls-2" x="628.68" y="0">N</tspan><tspan class="cls-17" x="642.12" y="0">T</tspan><tspan class="cls-12" x="653.85" y="0">A</tspan><tspan class="cls-16" x="666.6" y="0">C</tspan><tspan class="cls-18" x="680.05" y="0">T</tspan><tspan class="cls-19" x="691.77" y="0">/</tspan></text></g></svg>