<?xml version="1.0" encoding="UTF-8"?><svg id="Calque_2" xmlns="http://www.w3.org/2000/svg" viewBox="0 0 346.64 343.24"><defs><style>.cls-1{font-size:76.92px;}.cls-1,.cls-2,.cls-3{font-family:VinaSans-Regular, 'Vina Sans';}.cls-1,.cls-3{fill:#ff0089;}.cls-4{letter-spacing:-.04em;}.cls-5{letter-spacing:-.02em;}.cls-6{letter-spacing:-.02em;}.cls-7{letter-spacing:-.02em;}.cls-8{letter-spacing:-.03em;}.cls-9{letter-spacing:-.03em;}.cls-2{fill:#5eff00;font-size:80.28px;}.cls-10{fill:#202020;}.cls-3{font-size:51.62px;}.cls-11{opacity:.59;}</style></defs><g id="Maquette"><g class="cls-11"><rect x="8.3" y="6.46" width="331" height="331" rx="165.5" ry="165.5"/><path class="cls-10" d="m173.8,333.47c-.55.51-.23,1.7,1.25,1.42l1.03-2.01-2.28.59Z"/><path class="cls-10" d="m183.92,336.81c1.72-1.1,3.58-2.93,2.32-4.67-1.57,2.03-2.03,1.27-3.77,3.68-1.49.29-2.64-.56-2.41-1.3-.51.52-2.31-.38-3.09.89.98.74,2.11,1.11,3.29,1.13.59,0,1.21-.07,1.82-.23.62-.18,1.24-.47,1.86-.83.58.39.08.95-.03,1.33Z"/><path class="cls-10" d="m310.89,269.5l-.75.65c.26-.14.51-.37.75-.65Z"/><path class="cls-10" d="m342.76,183.19c0,.71.17,1.02.34,1.07-.08-.67-.16-1.22-.34-1.07Z"/><path class="cls-10" d="m345.24,167.18c-.05.35-.08.64-.11.96.17-.37.27-.74.11-.96Z"/><path class="cls-10" d="m310.89,269.5l1.95-1.67c-.43-.51-1.13.76-1.95,1.67Z"/><path class="cls-10" d="m203.18,329.62c-.47.18-.84.44-1.17.74.39-.16.76-.3,1.15-.42,0-.11,0-.2.02-.32Z"/><path class="cls-10" d="m284.38,300.88l-.57.5c-.02.32,0,.67.04,1.03l.53-1.53Z"/><path class="cls-10" d="m258.69,319.46c.66-.3.03-1.88-.11-2.65,0,.8-.29,1.35-.77,1.77.15.28.42.57.87.87Z"/><path class="cls-10" d="m211.28,334.92l-.81.42c.21-.12.57-.28.81-.42Z"/><path class="cls-10" d="m300.86,285.24c.22.13.46.19.64.18-.16-.14-.38-.19-.64-.18Z"/><path class="cls-10" d="m139.94,325.86c-.05.11-.03.19-.06.29.2-.13.28-.23.06-.29Z"/><path class="cls-10" d="m173.8,337.9l-.5.08c-.05.32-.11.63-.11.94l.61-1.02Z"/><path class="cls-10" d="m344.07,137.38c0,.06,0,.08,0,.14.33.74.22.31,0-.14Z"/><path class="cls-10" d="m137.31,3.39c3.3.79-4.44,3.01.4,3.61-.58-.54,3.55-3.51-.4-3.61Z"/><path class="cls-10" d="m203.99,329.7c.4-.09.8-.18,1.21-.23-.56.04-.93.12-1.21.23Z"/><path class="cls-10" d="m137.71,7h0s.49.06.49.06c-.21-.03-.32-.04-.5-.06Z"/><path class="cls-10" d="m316.55,74.74c-.16.28-.19.63-.21.98.13-.12.21-.36.21-.98Z"/><path class="cls-10" d="m336.46,121.33l-.18-1.25c.01.52.09.91.18,1.25Z"/><path class="cls-10" d="m298.21,55.68c-.37-.58-.36-.91-1.17-1.42,0,.12.01.22.05.35.4.08.79.33,1.12,1.08Z"/><path class="cls-10" d="m278.09,37.35c.03.19.13.39.19.58.23.14.5.31.73.46l-.92-1.04Z"/><path class="cls-10" d="m71.45,292.8c.11.73.04,1.35-.09,1.93.48-1.17,3.56.94.09-1.93Z"/><path class="cls-10" d="m203.37,330.55c.07-.44.25-.69.62-.85-.29.07-.56.15-.83.24-.03.26,0,.5.21.61Z"/><path class="cls-10" d="m287.79,64.03l-2.58-3.07c.66.93,1.59,2.04,2.58,3.07Z"/><path class="cls-10" d="m21.35,128.11l-.06.95c.13-.33.18-.66.06-.95Z"/><path class="cls-10" d="m276.34,53.1c-.15-.92-.5-1.68-.95-2.37-.21,0-.42-.05-.63.03l1.58,2.34Z"/><path class="cls-10" d="m71.35,294.75s0-.02,0-.02c0,0,0,0,0,.02Z"/><path class="cls-10" d="m95.28,306.65c-3.25-1.92-2.66.98-4.02,1.66-4.22-1.95-.93-2.53-1.63-4.33-1.35-.52-2.76-.64-4.07-.8-1.28-.19-2.44-.43-3.29-1.09.08-.39-.18-.74.48-.83-.87-.08-1.77-.44-2.69-.94-.46-.25-.93-.54-1.4-.84-.45-.33-.92-.67-1.39-1.01-1.86-1.38-3.83-2.71-5.91-3-.08-.32-.06-.56,0-.73-.28,1.23-.92,2.16-1.53,2.7-1.36-1.13-3.4-1.09-2.95-2.62.79.74,1.24.36,1.92.35l-1.81-.73c.12-2.65,2.37,1.1,3.37-.07-1.56-.91-3.42-1.72-5.11-2.6-1.64-.93-3.09-1.94-3.88-3.1,1-1.86,5.1,3.92,3.71.08l1.26,1.73,1.33,1.67c-.29-4.5,1.77,1.83,1.83-2.67-.47-.5-.9-.92-1.3-1.29-.39-.39-.75-.72-1.1-1.01-.7-.58-1.34-1.01-1.98-1.45-1.26-.88-2.62-1.68-4.26-3.9-1.66-.1-.92,1.46-2.59,1.35-1.73-1.07-2.63-2.12-3.1-3.1-.45-1-.44-1.96-.41-2.84.06-1.76.25-3.23-2.65-4.51-1.98-.26-4.34.86-5.83-3.23l2.69-.31c-1.55-2.15-2.69-2.24-3.67-2.51-.99-.25-1.88-.65-2.88-3.39,1.32.3,3.06,2.98,2.81,2.16-.61-4-2.54-1.32-4.18-3.62l1.37-1.62c-.83-1.14-1.74-2.28-2.69-3.43-.95-1.15-2-2.28-2.93-3.51-1.9-2.43-3.96-4.9-5.51-7.67.7.04,1.75.69,1.64-.9-.56-.82-1.1-1.67-1.62-2.55-.25-.44-.51-.89-.76-1.34-.22-.47-.44-.93-.66-1.4-.86-1.89-1.64-3.85-2.34-5.83-.61-2.01-1.15-4.04-1.64-6.02-.26-.99-.46-1.98-.62-2.97-.17-.98-.34-1.94-.5-2.89l-2.61-2.21c-.2-.65.41-1.44.93-.84-.17-3.04-1.11.18-2.16-1-.58-1.61.36-2.44,1.16-1.55-3.07-4.5-6.72-13.88-5.76-19.68l.71.98c-.03-1.09-.27-1.9-.63-2.58-.37-.68-.86-1.21-1.33-1.75-.93-1.07-1.74-2.15-1.18-4.25l.41.74c-.08-4.74-.69-9.67-.71-14.36-.02-1.17-.04-2.33,0-3.46.08-1.13.18-2.23.33-3.29.32-2.13.68-4.11,1.5-5.85-1.21-.75-.75-3.06-.43-5.27.08-.55.15-1.1.19-1.62.05-.52.09-1,.04-1.43-.08-.86-.44-1.52-1.3-1.78,1.21-2.58,1.92-3.44,2.59-4.58.71-1.13,1.44-2.53,2.67-6.1.47-1.93-1.56-3.35-1.37-5.88l1.82.35-1.13-3.75c.84-.41,1.72-.8,2.6-1.18l.18-2.36c-.36.86-1.34,1.68-1.82,1.4.1-1.87,1.02-3.94,2.03-5.49,1.05-1.54,2.24-2.54,2.69-2.44l.63-4.31c.21-1.44.54-2.85.81-4.29.62.45.33,1.88.36,3.1-.08-4.93,2.12-.06,2.04-4.57-.59.36-.91-.7-1.22-.93.87-.78,1.84-2.22,2.7-3.91.88-1.67,1.54-3.64,2.16-5.3l.84,1.16c.79-1.37,1.53-2.81,2.25-4.3.35-.75.71-1.5,1.07-2.27.38-.75.77-1.51,1.16-2.27.78-1.53,1.53-3.1,2.37-4.65.88-1.52,1.79-3.04,2.76-4.53-1.87,1.82-3.43.15-2.45-1.76l2.08.37c-.27-1.82-1.81,1.45-1.52-1.73,1.73-2.1,2.87-.22,2.51,1.37l1.32-3.03c.59.18.4.98.9,1.56-.2-1.79,4.74-3.39,4.29-6.1l.57.21c1.1-1.39,2.01-2.61,2.81-3.74.84-1.11,1.59-2.1,2.32-3.06.72-.97,1.42-1.9,2.16-2.89.75-.97,1.62-1.92,2.59-2.99-1.15-1.24.69-2.63.93-4.86,1.75-1.3,3.72-2.53,5.7-3.89,2-1.34,4.1-2.68,5.99-4.44,2.25-2.97-.09-1.78.55-3.59,1.19,1.02,5.15-2.28,3.72.25,2.33-2.05,3.91-3.22,5.58-4.65.83-.71,1.69-1.49,2.69-2.43,1.04-.89,2.25-1.94,3.74-3.27-1.06-.07-2.02.23-1.88-.49,1.08-1,3.11-1.23,3.32-.49l-.23.34c3.18-3.3,8.23-4.91,13.02-6.14,2.36-.7,4.74-1.18,6.78-1.96,1.03-.38,1.98-.82,2.84-1.35.88-.48,1.66-1.05,2.32-1.74l-.31.29,3.07-2.11,1.55-1.05,1.59-.98c3.27-.82-1.52,1.73,1.14,1.84,1.63-1.23,3.21-2.08,4.72-2.71,1.53-.55,3.01-.89,4.44-1.2,2.86-.67,5.59-.94,8.56-2.5.73.41,1.54.66,2.42.77.88.15,1.83.18,2.83.12,1-.06,2.04-.21,3.12-.42,1.08-.21,2.19-.48,3.32-.67,2.26-.42,4.58-.94,6.78-1.16,2.2-.14,4.26-.06,5.97.54l-.45-1.04c1.67-1.18,2.12.43,3.4.66-.21-.82-1.92-.91-.87-1.52,3.67-.37,7.43-.68,11.21-.39,1.89.12,3.79.19,5.68.45,1.89.27,3.78.56,5.67.87l1.41.24,1.4.32,2.8.64c1.86.43,3.72.83,5.55,1.39,1.83.51,3.65,1.02,5.47,1.53,1.8.58,3.58,1.15,5.36,1.69,2.62.72,3.69-.34,4.91-1.15,1.21-.8,2.57-1.26,5.56.91l-2.47,1.36c.7.05,1.41.1,2.11.2.69.12,1.38.25,2.07.39,1.38.29,2.74.64,4.1,1.03,1.37.36,2.68.9,4,1.4l3.94,1.57c2.58,1.16,5.12,2.37,7.69,3.45,2.51,1.21,5.11,2.21,7.74,3.09-.79.08-1.08.57-2.02.09,1.33,2.34,7.31,4.25,7.98,3.27,1.36,1.03-.22,1.12.34,2.19,1.45,1.96,5.89,1.54,6.08,3.47.04.32-.78,0-1.2-.13,1.62.28,5.57,4.18,5.38,2,1.46,1.47,3.08,2.56,4.64,3.58,1.54,1.04,3.07,1.95,3.96,3.43,2.81,0,4.73,5.21,6.94,3.8-2.06,1.82,3.72,6.47,6.36,7.56-1.19-.06.94,2.21-.59,2.26,2.09,2.05,4.17,3.81,4.89,2.49.56,3.14,2.87,4.71,4.76,6.34,1.91,1.59,3.66,3,2.84,5.51,1.56,1.56,3.08,3.12,4.56,4.67,1.4,1.61,2.76,3.22,4.1,4.83.68.79,1.31,1.62,1.91,2.45.61.83,1.21,1.66,1.8,2.49.59.83,1.18,1.66,1.76,2.49.53.86,1.07,1.71,1.6,2.56-.63.25-1.22-.11-1.77-.76-.54-.65-1.07-1.59-1.65-2.47-1.13-1.79-2.23-3.5-3.37-2.63,1.17,1.47,2.31,2.74,3.41,3.93,1.06,1.22,2.05,2.37,3.01,3.54.94,1.19,1.93,2.36,2.68,3.75.78,1.38,1.5,2.91,2.12,4.69.46,1.91-1.53-.54-2.22-.94.51.8.99,1.6,1.44,2.42.45.81.79,1.66,1.16,2.49.71,1.67,1.35,3.34,1.99,4.99.57,1.67,1.12,3.32,1.76,4.91.32.8.66,1.58,1.04,2.35.35.78.7,1.55,1.11,2.31-.25.05-.71-.56-1.09-1.16.45,1.24.46,3.06,1.6,2.58l-.67-1.15c1.12-2.57,5.05,4.08,6.02,4.12-3.93-1.34.66,6.79-4.49,4.29.42.79,1.23,1.72,1.99,1.35.06,1.32-.32,1.81-1.53.74.43,1.11.81,1.83,1.15,2.35.31.52.6.84.86,1.15.52.62.95,1.21,1.32,3.34-.59.09-.97-.73-1.74-1.04,1.52,1.92,3.12,3.92,3.03,7.63-.38-.17-.79.31-.92-.77.48,3.09,1.63,5.64,2.39,8.36.41,1.35.78,2.74,1.01,4.23.24,1.48.19,3.08-.03,4.82-2.64-1.97-.79,2.38-3.02,2.76.28,1.22.47,2.44.66,3.67l1.13-1.47c-.06,1.62.3,3.16.57,4.64.26,1.49.51,2.93,0,4.31-.23-.82-.5-1.64-.8-2.46.07,1.02.05,2.03.04,3.05l-.02,3.05,1.11-3.39c.9,3.38,2.86-.18,1.9,4.17-.17-.92-.23,3.32-1.83,4.86,0,0,0-.01,0-.01.5,1.69,1.04,3.47.18,5.82-.79.52-2.39-.87-2.91-.54.83.92.59,2.83.39,4.79-.21,1.96-.37,3.99.34,5.18-.31-.76-1.45-1.03-1.73-.86l1.18,1.62c-.82,1.38-1.1,1.54-1.96,1.09-1.29,4.36,3.09-.77.68,4.24-.02-.45-.29-.3-.31-1.22-1.93,5.09-1.84,10.43-4.23,14.93-2.6.64.87-4.3-1.47-3.32-1.74,6.87-2.71,14.84-6.21,20.93l.81-1.05c1.22,1.12.26,2.13-1.02,3.3-1.3,1.17-2.84,2.53-3.06,4.42.23-.86-1-1.83-.8-1.46-1.4,1.94-2.44,4.12-3.47,6.69-.55,1.27-1.14,2.61-1.76,4.05-.65,1.43-1.25,3.04-2.13,4.64l-.16-1.19c-2.26,1.85-4.55,5.84-6.79,7.93.09,1.2-1.09,2.49.49,2.4-1.19.56-2.2,1.23-3.12,1.95-.95.7-1.78,1.48-2.52,2.31-1.5,1.66-2.66,3.56-3.92,5.34-1.25,1.8-2.4,3.67-3.9,5.17-1.5,1.5-3.22,2.75-5.37,3.47.71-.69,1.22-2.15.65-1.61-1.49,1.84-3.16,3.49-4.76,5.24,1.33.69,1.25.03,3.09-.14-.14,1.21-1.26,3.02-2.61,4.2,1.84-2.84-1.43-1.65-3-1.42.45.19.37.84.74,1.1-4.47.37,1.25,2.57-3.81,4.43l-.23-.75c-.63.75-1.17,1.56-1.79,2.31-.61.76-1.29,1.47-2.19,1.98-1.62-.81,1.23-1.79.56-2.94-2.28,1.71-2.89,5.85-6.03,5.9.79-1.04,2.28-1.99,3.01-3.09-1.68.06-2.54.19-3.21.43-.67.25-1.16.61-2.12,1.05l.2-.08c-1.52.62-3,1.28-4.52,1.86.45-.05.88-.13,1.31-.21-.42,2.73-1.96,3.78-3.68,4.8-.86.5-1.78.99-2.67,1.64-.91.61-1.79,1.4-2.57,2.57,3.02-4.46,0-1.68-.51-3.46-1.33.11-3.23.45-2.99-.24-.68,1.16-1.64,1.36-2.68,1.63-1.05.25-2.16.62-3.17,2.25-.37-.47-2.23.95-2.35-.61-2.48,1.63,1.03.65,1.11,1.42-1.65,1.91-4.43,2.27-7.31,2.87-.72.15-1.46.31-2.19.5-.75.16-1.5.35-2.23.6-1.48.5-2.91,1.24-4.26,2.42-2.52,1.39-3.94,2.53-5.32,3.73-.69.59-1.37,1.17-2.19,1.76-.83.56-1.8,1.09-3.05,1.63-1.97-.51.94-2.4.94-2.4-1.51-.09-2.78.02-3.98.31-1.21.29-2.34.8-3.62,1.34.44-.6-.2-.92-1.13-1.42-2.1.53-1.05,2.35-4.03,2.01.38-.73.83-1.87,1.73-2.7-1.2.49-2.37,1.11-3.57,1.74-1.21.56-2.43,1.13-3.72,1.55-.82-.92,1.39-1.74,2.2-2.51-2.85.82-7.46,1.92-8.25,3.51l1.97.42c-1.08.16-.69-1.32.07-1.7,2.38-1.58,3.7.09,3.93.66l-1.84.61c1.16,1.58,3.08,1.2,5.14.39,2.06-.82,4.23-2.24,6.12-2.45l-1.13,2.74,3.5-2.73c.48.25.92.66,1.03,1.13.11.46-.12.98-1.03,1.33,2.99.67,2.22-1.4,4.85-.57.31.15.22.29,0,.45l2.49-1.34c-.4.63.87,1.61-.86,1.64,1.28.06,2.39-.1,3.35-.44.95-.35,1.76-.81,2.47-1.23,1.43-.83,2.49-1.5,3.65-.85l-.35.26c1.59-.65,2.37-1.16,2.73-1.54.36-.38.31-.65.19-.94-.24-.57-.71-1.24,1.33-3.07,1.55,1.07,3.12,2.12,4.73,3.17v-1.94c.69-.18,2.03-.57,2.05.21,1.99-2.13-.69-.58.29-2.24,1.86.15,3.97-.84,5.78-1.67,1.8-.86,3.36-1.43,4.32-.26.52-1.76-3.38.35-.51-2.01,1.12,1.22,2.02.66,3.05-.19,1.02-.89,2.13-2.1,3.83-2.16-.1,1.87-3.12,2.45.3,2.33.22-1.65,1.62-2.2,3.25-2.56,1.62-.37,3.43-.65,4.45-1.52-.49-.98.63-1.88,2.3-2.89,1.65-1.03,3.8-2.3,5.45-3.78.2.83,7.52-3.61,11.24-5.55l.13.37c-.35-1.12.36-2.25,1.42-3.38,1.07-1.12,2.49-2.25,3.48-3.45.76,1.08.69,1.86-.23,3.39.75-.61,1.47-1.27,2.21-1.9.06-.99.5-1.86,1.76-3.28l.54,1.71c.72-.66,1.37-1.39,2-2.17.6-.81,1.21-1.64,1.84-2.5.64-.84,1.33-1.68,2.13-2.47.4-.4.83-.78,1.3-1.15.45-.39.93-.76,1.46-1.12-.93-1.25-5.71-.2-2.92-4.63.73.44,1.89,1.28,1.19,2.5.23-.4.59-1.62,1.47-2.03l-.42,2.47c1.99-1.2-.03-1.66,1.29-2.86.84.84,1.53-.38,2.05.44-.23.41-1.44.8-1.58,1.62,1.56-1.32,3.78-2.63,4.96-2.68-.62-.31-1.19-1.06-.33-2.29,2.46-2.97,1.94-.07,3.89-1.39.01-1.22,2.2-2.63.86-3.8.7-.88,1.48-.53,2.13-.58.3-1.04,1.75-2.89,2.65-4.47.89-1.59,1.36-2.82-.06-2.45l-.4.34c.03-.1.09-.19.13-.31h0s0,0,0,0c.59-1.58,1.41-3.02,2.38-4.38.95-1.37,1.95-2.72,3.03-4.03,2.19-2.59,4.26-5.31,5.55-8.3l.51.3c.71-1.82,1.54-3.82,2.31-5.68.75-1.87,1.42-3.63,1.37-5.16.47-1.03,2.09-1.99,2.53-1.26.78-2.9.42-3.39,2.86-7.01-.14,3.16,1.23-.61-.42,3.13,1.88-3.39,3.14-3.89,3.09-8.33.97,1.87,2.74-2.13,2.91-4.03l-1.9,2.23c.45-2.03,1.16-3.7,1.87-5.4l1.59,1.55c1.22-1.72,1.72-3.57,2.04-5.38.28-1.82.37-3.61.31-5.35-.02-1.74-.01-3.39.33-4.92.17-.77.45-1.5.8-2.22.35-.72.82-1.4,1.45-2.06-1-2.33-1.73,4.07-3,1.89.89-3.49,4.41-6.78,4.6-7.94.87-2.43.3-3.71-.32-5-.31-.64-.63-1.29-.78-2.1-.15-.8-.14-1.76.13-3.05-.76.61-2.7,1.02-3.07-2.85.53-3.54,3.32-4.25,3.71-1.91,0,.88-.26,1.28-.5,1.23.17,1.19.35,2.77,1.23,1.38l-.67-.53c.43-.88.72-2.58,1.04-3.91.3-1.33.56-2.29,1.14-1.67-.61-2.82-1.14-1.23-1.56.8.58-2.33.63-4.18.64-6.03,0-.93.01-1.86.02-2.87,0-1,.04-2.08.18-3.3-.37.78-1.19,1.5-1.2.74.35-3.55,0-4.33-.51-4.79-.49-.47-1.12-.65-1.47-3.01.88-2.77,2.66.8,1.39-3.95.51-3.01,1.83-.8,2.5.34-.43-1.08-.62-2.15-.68-3.17-.1-1.02-.07-2.01.03-2.96.19-1.88.62-3.57.58-4.86l.87,2.27c-.53-1.36-.64-2.52-.82-3.69-.38.52-.81,1.04-1.22,1.55.09-1.41-.17-2.56.44-2.63-1.17-1.25-2.15,1.44-3.9-1.1.37-1.92-1.69-5.28-.04-6.27.47,5.76,1.77-1.02,2.95,3.75-.39-.89-.58-2.03-.59-3.45.16-.25.43.11.6.47.44-5.8-2.65-2.06-3.88-7.62.6.22,1.01-.22,1.22-.84.2-.61.16-1.38-.07-1.8.61,2.25-1.42,1.5-2.78-.3-.2-3.74-1.67-3.64-2.1-5.49l.22,2.2c-.61-.2-1.01-.74-1.37-1.53-.38-.78-.79-1.78-1.35-2.92.72-.46,1.27,1.99,1.33,1.02-1.34-1.04-1.38-2.67-1.4-4.49.01-1.82-.09-3.79-1.4-5.39,0-1.96,1.8-.89,1.66-2.57-1.45-1.81-1.55-3.07-1.72-4.34-.15-1.28-.28-2.62-1.77-4.52-.74,1.84-.34,1.88-2.94-.49l4.06,6.53-3.91-3.6c.9,2.09,2.85,4.01,3.11,5.4-1.94-1.7-1.57-1.58-2.2-.14.35-1.83-.58-3.12-1.6-4.41-1.04-1.28-2.09-2.6-2.29-4.5l3.23-1.47c-.56-2.79-2.04-4.81-3.8-6.86-.9-1.02-1.83-2.06-2.72-3.26-.89-1.2-1.69-2.58-2.48-4.17.23.76.49,1.48.68,2.25-1.67-.09-2.51-3.58-4.21-5.2,1.1-.47.69-1.92.76-3.16-.65.6-2.97-4.32-5.25-3.45-.2-1.15-.36-2.35-.61-3.48-3.07-4.92-6.61-3.09-9.87-7.4,2.05.4,1.05-2.04,4.16.15-1.2-1.4-2.12-2.8-2.76-2.28-.08-.65-1.2-1.36-2.36-2.12-1.19-.74-2.39-1.56-2.56-2.55-.91-.2-1.98.48-3.31-1.06.02-.33.42-.41.42-.41-.22.21-.9-.24-1.51-.44-.62-.19-1.14-.16-.96.92-.35-1.61-1.25-3.09-2.42-4.48-.58-.69-1.24-1.37-1.92-2.02-.7-.63-1.46-1.23-2.2-1.84-1.49-1.2-2.96-2.38-4.18-3.59-1.26-1.16-2.26-2.38-2.73-3.77-.84-.54-1.72-1.11-2.63-1.69-.9-.58-1.86-1.11-2.77-1.68-1.85-1.11-3.6-2.27-5.13-3.22.39-.17.34-.48.85-.01-3.61-3.61-4.41,1.17-8.5-2.84-.75-1.54.03-1.39.85-1.04.82.35,1.65.96,1.09.16.71-1.9-.88-2.63-2.87-3.39-2.01-.75-4.37-1.56-5.57-3.4l.94.22c-2.03-2.51-7.03-2.05-11.27-4.18,0,0,.35-.22.27-.53-1.9.23-4.3-.16-6.83-.59-2.52-.45-5.07-1.23-7.33-1.64,1.85-.98,2.23-.1,1.93-1.83-2.01-.45-.28,2.53-4.25,1.65-.98-1.2-3.52-2.88-3.44-4.52,1.26.31,2.48.75,3.72,1.12-.61-1.33-1.81-1.74-3.1-1.88-1.29-.12-2.65-.03-3.58-.48l.51-.83c-5.85-1.39-6.52,1.01-12.66-.61l.49.84c-1.92.73-2.56.34-3.2-.2-.63-.52-1.26-1.12-3.11-.57l-.63-2.52c-.59.05-1.4.12-2.36.2-.95.12-2.04.26-3.19.4-1.14.14-2.34.26-3.5.35-1.16.08-2.29.12-3.32.18,1.24-.82,3.07-1.22,4.99-1.56,1.92-.33,3.94-.58,5.51-.87-2.27-.34-7.78-.83-9.07.18.93-.11,2.15-.54,3.02-.07-3,1.42-6.69,2.15-11.16,1.75.53-2.31-2.42-2.68-5.9-2.93-3.48-.33-7.47-.14-9.2-1.91-1.01.24-2.02.41-3.03.54-1.01.17-2.02.3-3.03.38-2.03.18-4.1.16-6.21.21-2.11.08-4.27.13-6.49.25-.56.03-1.12.06-1.68.11-.56.07-1.12.15-1.69.22-1.14.16-2.29.36-3.46.61,3.95,2.92-2.71.59-1.43,4.08-2.09.61-2.89.81-3.14.6-2.29-.21-4.62-.45-6.96-.63-.9-.3-.45-.64.19-.99.64-.32,1.46-.66,1.26-1.03-2.41.39-2.98.24-3.4-.16-.42-.38-.66-.89-2.36-.92.99,1.08-1.13,2.27-3.95,2.56l4.24.55c-1.5.93-2.64,1.31-3.62,1.42-.98.11-1.78,0-2.6-.13-1.63-.26-3.32-.51-6.25,1.5l1.68-1.79c-3.14,1.71-12.28,4.71-14.13,8.9-.74-.13-1.92-.7-.62-1.58-.98.39-1.98.82-2.94,1.36-.96.55-1.91,1.14-2.86,1.77-1.89,1.26-3.78,2.55-5.52,3.96-1.77,1.37-3.5,2.66-5.18,3.74-1.65,1.14-3.27,2.04-4.88,2.54l.05-1.09c-1.17,1.08-1.38,2.83-3.47,3.24-.13-.36,0-1.1-.61-.73-.51.74-2.48,3.69-4.47,4.46l.85-1.84c-1.87.92-3.28,2.08-4.48,3.26-1.2,1.18-2.18,2.41-3.08,3.65-1.72,2.58-3.14,5.18-5.44,7.66-.88-.98-2.63-.53-4.5.43-1.87.95-3.87,2.39-5.11,3.44l-.19-.34c-1.71,1.69-3.2,3.35-4.48,5.05-1.24,1.74-2.32,3.47-3.34,5.2-1.06,1.71-1.91,3.54-2.87,5.34-.93,1.82-1.97,3.61-3,5.57-1.37.68-2.79,1.93-4.25,3.52-1.44,1.6-2.8,3.61-4.24,5.7-.35.52-.71,1.06-1.07,1.59-.35.54-.67,1.1-1.01,1.65-.68,1.1-1.37,2.21-2.04,3.3-1.42,2.14-2.68,4.27-4.05,6.06,1.04-.99,1.73,1.14,1.26,2.63-1.48,1.58-.74,5.91-2.83,4.59l.35-.65c-2.78.43-4.07,4.57-5.28,7.68l2.74,1.68c-1.85,1.57-3.26,3.73-4.17,6.18-.48,1.22-.88,2.49-1.24,3.77-.17.64-.36,1.28-.5,1.93-.12.65-.25,1.3-.37,1.94-.46,2.56-.94,4.98-1.49,7.01-.54,2.04-1.3,3.66-2.57,4.59.17,1.11.04,2.28.05,3.47-.01,1.19-.03,2.37.18,3.46l-1.65-.41c-.36,1.42-.67,2.66-.96,3.83-.29,1.17-.44,2.3-.64,3.47-.18,1.17-.33,2.38-.48,3.75-.06.69-.13,1.41-.2,2.19-.02.78-.04,1.62-.07,2.52l-1.1-1.58c-.21,2.04.91,3.43,2.06,4.74,1.18,1.32,2.29,2.56,2.31,4.4l-2.56,1.01c-.04,1.76-.21,3.52-.42,5.28l-.16,1.33-.1,1.33c-.07.89-.13,1.77-.17,2.66-.08,1.77-.12,3.55.08,5.31.25,1.75.67,3.49,1.38,5.17-.38-.08-1.13-.23-1.31-1.37.03,3.32-.28,13.07,2.99,11.37-2.33.42.95,7.24,2.66,10.7l-1.77-.23c2.81,2.69,3.4,2.64,4.96,6.79.03,1.07-1.09,1.23-.99-.24.01,3.62,2.24,2.21,2.52,6.51l-1.46-1.22c.88,3.5,1.29,3.08,3.12,4.57,1.36,1.91,1.75,6.54.54,7.57,1.05.14,2.91,1.52,3.28,3.63-.43.48-1.04-.11-1.34-.41.29,1.5.75,2.73,1.28,3.8.56,1.05,1.22,1.92,1.82,2.75,1.22,1.65,2.23,3.1,2.39,5.31-.46.32-.59.68-.58,1.06-2.05-4.34-3.48-7.93-3.24-7.63-1.42.6-.05,4.29-3.29,2.3,1.19,1.22,2.91,2.79,4.44,4.5,1.59,1.69,3.05,3.49,3.59,5.35-.05.23-.1.46-.24.7l-.33-.27c.27.85.75,1.49,1.32,2.02.38,1.17.6,1.94,1.16,2.96-.44.51-.03,1.57.61,2.72.63,1.15,1.5,2.39,2.02,3.21,1.35-1.02,2.48,1.25,2.39-1.48.07.32-.38-.19-1.11-1.25-.19-.23-.38-.51-.56-.62.06,0,.13.02.19.04-.67-1.07-1.53-2.49-2.49-4.1,1.51.91,2.91,1.9,3.17,4.22,1.42.3,2.98.6,3.74.83-.3,1.71-.03,3.82.23,5.68.23,1.87.58,3.41.17,4.13,1.06,1.08,2.12,2.31,3.2,3.56,1.06,1.26,2.27,2.45,3.42,3.59,1.16,1.13,2.33,2.16,3.51,2.95,1.22.75,2.44,1.28,3.64,1.46,1.39.98.56,2.04.6,2.84-.87-.52-1.59-1.42-2.27-1.52.7.5,1.47,1.21,2.27,1.97.4.38.8.78,1.21,1.17.43.37.85.74,1.27,1.09,1.67,1.39,3.25,2.42,4.31,1.93,1.08,1.86.32,1.8-.2,1.75-.26-.02-.45-.04-.31.19.14.23.59.74,1.71,1.66l-1.04-.06c1.45,2.59,3.27,4.48,5.28,5.95,2.07,1.41,4.3,2.45,6.51,3.51,2.24,1.03,4.54,2,6.67,3.48,1.05.76,2.14,1.53,3.18,2.51,1.04.97,2.04,2.12,3,3.49-.55-.73-.83-1.09-.76-1.5.66.62,1.32,1.23,2.02,1.8.71.55,1.44,1.09,2.17,1.62,1.48,1.05,2.99,2.07,4.55,3.02,1.59.9,3.21,1.76,4.84,2.61.82.42,1.62.86,2.45,1.25l2.51,1.15c1.66.77,3.32,1.55,4.98,2.32,1.68.72,3.34,1.47,4.96,2.26.81.41,1.62.82,2.42,1.22.81.39,1.62.79,2.42,1.21,1.59.84,3.15,1.77,4.66,2.78,3.61,1.9,4.5.71,7.13.46l.28,2.01c1.55-.24,3.1-.56,4.62-.84,1.52.03,2.81.49,4.04,1.15,1.23.63,2.41,1.4,3.65,2.18,1.24.77,2.55,1.51,4.06,1.99,1.51.43,3.22.54,5.2.17l-.74-1.37c1.3.34,3.42.58,5.14.79,1.72.19,3.04.47,2.73,1.13.3-.19,1.04-1.15,2-.38l-.03.95c1.13-.14,2.25-.24,3.37-.41l3.36-.56c2.51.53,2.26,1.46,2.29,2.34.02.44.11.87.67,1.24.56.36,1.59.71,3.49.78,2.87-.29,8.05-2.56,6.99-3.22-1.12-.07-2.85-.66-2.91-1.61l2.51-.43c.49-2.78,2.27-5.6-3.57-7.7l-4.18,1.6-1.25-1.45c1.15.08,2.3.07,3.45.07-1.9-1.29-3.17-.27-4.62.39-.28-.74-.82-1.29-1.6-1.62-1.4.78-2.82,1.58-4.26,2.35-.37-1.15,2.01-1.96-.6-2.87-2.01.99,1.54,2.67-1.67,3.08-1.82-1.51-1.1-2.46-3.54-1.68-.22-.75.33-1.15,1.27-1.34-1.07.29-2.43.25-3.67.21-1.24-.05-2.37,0-3.02.64-.88-.95-2.6-1.16-4.02-1.44-1.42-.32-2.52-.78-2.14-2.04-.75.48-3.97,1.21-5.86.89,2.07-1.16.35-1.54-1.61-2.22-1.97-.64-4.24-1.39-3.31-2.89-.8.5-1.79.72-2.86.63-1.07-.07-2.25-.35-3.48-.68-1.23-.34-2.51-.69-3.76-1.04-1.24-.37-2.48-.64-3.68-.69.32-.12.95-.36,1.26-.08-2.27-1.15-2.63-2.21-3.92-3.3-1.2,2.04-5.03.89-7.62,1.32-1.88-3.34,2.91-1.71,2.93-4.1-.33.89-1.76.79-3.06.65-1.29-.17-2.47-.33-2.35.62-1.49-2.34-1.53-1.55-1.71-3.83-1.74,2.4-2.21-.52-4.77.04-2.28-2.98.6-2.83-3.11-3.93-1.08-1.66,2.33-.9,2.33-.9Zm-64.5-60.77s.02-.01.03-.02c.39.68.73,1.26.94,1.63-.2-.34-.48-.8-.97-1.61Zm-3.38-6.87c.33.87.78,1.95,1.32,3.05-.39.49-1.09.51-1.38-.22.52.22.08-1.58.06-2.83Zm-2.6,20.27c-.85-1.01-.79-1.55-.57-1.88.33.52.74,1.11,1.3,1.86.07,0,.17.03.25.03-.34.06-.67.09-.98-.01Z"/><path class="cls-10" d="m27.86,260.16c.12.14.24.19.38.39-.02-.29-.03-.58-.07-.85-.23-.04-.47-.08-.68-.12.12.2.25.4.37.59Z"/><path class="cls-10" d="m310.01,270.27l.13-.12c-.13.08-.26.14-.4.15.13-.04.17-.01.27-.03Z"/><polygon class="cls-10" points="20.06 136.43 19.65 136.34 19.86 137.06 20.06 136.43"/><path class="cls-10" d="m276.26,297.71c-.16-.06-.38-.09-.71,0,.09.07.37.04.71,0Z"/><path class="cls-10" d="m261.2,308.14l-2.5.89c1.12-.31,1.9-.62,2.5-.89Z"/><path class="cls-10" d="m248.66,314.5c-.02.34.04.56.09.77.01,0,.02,0,.03,0l-.12-.76Z"/><path class="cls-10" d="m325.94,125.6c-.06-.18-.13-.35-.22-.49-.67-1.1-.29-.33.22.49Z"/><path class="cls-10" d="m335.65,190.79c-.21-.74-.42-1.47-.52-2.22-.28,1.17-.43,2.07.52,2.22Z"/><path class="cls-10" d="m288.07,64.37s.01,0,.03-.01c-.11-.11-.2-.21-.31-.32l.28.34Z"/><path class="cls-10" d="m335.39,185.48c-.42,1.16-.43,2.15-.26,3.09.19-.96.45-2.09.26-3.09Z"/><path class="cls-10" d="m190.86,331.29h-.67c.02.12,0,.22-.05.29l.73-.29Z"/><path class="cls-10" d="m190.14,331.58l-.73.25c.34-.03.64-.06.73-.25Z"/><path class="cls-10" d="m187.88,332.38l1.53-.54c-.54.04-1.22.03-1.53.54Z"/><path class="cls-10" d="m209.22,329.02l.07-.64c-.08.15-.11.36-.07.64Z"/><path class="cls-10" d="m214.66,327.55c-1.33.24-3.58-.49-5.3.31l-.06.51c.63-1.1,4.38.53,5.36-.83Z"/><path class="cls-10" d="m239.83,326.91c-1.58.5-3.18.92-4.76,1.38,1.04.29,2.43.68.38,1.66,6.55-.51-1.73-.86,4.38-3.04Z"/><path class="cls-10" d="m254.07,321.1c-2.23,1.49.47.82.53,1.21,1.22-1.33,1.49-1.67-.53-1.21Z"/><path class="cls-10" d="m328.43,241.02l1.29.87c.65-1.98-.54-.26-1.29-.87Z"/><path class="cls-10" d="m328.29,218.82c-.48.52-.94,1.04-1.46,1.54l1.05,1.29c.16-.94.32-1.87.41-2.82Z"/><polygon class="cls-10" points="341.98 209.61 341.99 210.55 342.23 207.03 341.98 209.61"/><path class="cls-10" d="m282.85,39.2l-.72,1.86c1.27.66,2.87-.79.72-1.86Z"/><path class="cls-10" d="m209.42,5.85c-.65-1.16-2.8-2.16-4.36-1.49,1.78.44,3.42,1.49,4.36,1.49Z"/><path class="cls-10" d="m11.5,112.08l.02-1.77c-.21,1.04-.46,2.06-.61,3.11.19-.45.37-.91.59-1.35Z"/></g><text class="cls-1" transform="translate(91.73 137.92)"><tspan class="cls-8" x="0" y="0">S</tspan><tspan class="cls-7" x="29.23" y="0">tre</tspan><tspan class="cls-8" x="118.45" y="0">e</tspan><tspan x="147.68" y="0">T</tspan></text><text class="cls-3" transform="translate(145.9 181.76)"><tspan class="cls-6" x="0" y="0">J</tspan><tspan x="20.13" y="0">am</tspan></text><text class="cls-2" transform="translate(67.67 247.54)"><tspan class="cls-5" x="0" y="0">Fe</tspan><tspan class="cls-9" x="57" y="0">s</tspan><tspan x="87.51" y="0">ti</tspan><tspan class="cls-4" x="136.56" y="0">v</tspan><tspan x="166.35" y="0">al</tspan></text></g></svg>